<?xml version="1.0" encoding="UTF-8"?>
<!DOCTYPE svg PUBLIC "-//W3C//DTD SVG 1.1//EN" "http://www.w3.org/Graphics/SVG/1.1/DTD/svg11.dtd">
<!-- Creator: CorelDRAW X7 -->
<svg xmlns="http://www.w3.org/2000/svg" xml:space="preserve" width="61mm" height="21mm" version="1.1" style="shape-rendering:geometricPrecision; text-rendering:geometricPrecision; image-rendering:optimizeQuality; fill-rule:evenodd; clip-rule:evenodd"
viewBox="0 0 6100 2100"
 xmlns:xlink="http://www.w3.org/1999/xlink">
 <defs>
  <style type="text/css">
   <![CDATA[
    .fil0 {fill:#FFF8E0}
   ]]>
  </style>
 </defs>
 <g id="Слой_x0020_1">
  <metadata id="CorelCorpID_0Corel-Layer"/>
  <path class="fil0" d="M819 377c0,78 -29,146 -87,205 -68,69 -155,103 -260,103 -36,0 -104,-12 -203,-35 -43,23 -84,35 -122,35 -20,0 -37,-3 -51,-10 -18,-8 -27,-21 -27,-39 0,-31 27,-47 82,-47 35,0 87,7 157,21 39,-28 73,-64 100,-107 -53,-13 -95,-39 -127,-76 -34,-39 -51,-85 -51,-138 0,-69 24,-125 70,-166 45,-40 103,-60 173,-60 66,0 132,21 195,62 35,-29 56,-43 61,-43 5,0 8,2 8,5 0,3 -18,19 -54,48 91,73 136,154 136,242zm-189 -215c-63,-42 -132,-63 -205,-63 -50,0 -90,14 -119,40 -31,27 -46,66 -46,115 0,51 16,96 48,137 31,39 71,66 120,82 15,-22 37,-58 66,-108 33,-54 54,-89 64,-104 25,-38 49,-71 72,-99zm164 247c0,-88 -49,-168 -149,-239 -28,34 -62,85 -99,153 -42,77 -73,129 -94,157 17,3 32,4 44,4 35,0 66,-8 94,-23 31,-16 53,-38 66,-68 3,-9 6,-17 9,-23 5,-12 9,-18 13,-18 4,0 5,3 5,9 0,24 -12,50 -38,77 -49,52 -106,76 -172,73l-42 -2c-26,35 -61,70 -104,103 102,17 173,26 213,26 71,0 131,-20 178,-61 51,-42 76,-98 76,-168zm-550 236c-58,-20 -101,-29 -127,-29 -20,0 -31,7 -31,23 0,22 22,34 65,34 27,0 58,-10 93,-28zm865 -86c0,8 -12,21 -34,37 -19,15 -37,22 -55,22 -6,0 -12,0 -19,-1 -15,16 -33,31 -53,44 -25,16 -46,24 -63,24 -38,0 -57,-29 -57,-88 0,-10 3,-23 7,-39 -9,12 -15,17 -19,17 -2,0 -4,-1 -4,-3 0,-4 12,-18 35,-44 54,-58 104,-87 149,-87 39,0 58,20 58,61 0,31 -14,65 -42,102 11,2 16,2 14,2 13,0 27,-6 42,-18 10,-10 20,-21 32,-33 1,-1 3,-1 5,-1 3,0 4,2 4,5zm-83 -76c0,-19 -9,-28 -27,-28 -29,0 -59,24 -90,72 -29,44 -43,82 -43,114 0,21 6,31 20,31 26,0 56,-25 91,-75 33,-48 49,-86 49,-114zm326 82c0,5 -15,22 -43,51 -46,46 -86,69 -121,69 -23,0 -41,-9 -54,-29 -11,-17 -17,-38 -17,-62 0,-9 2,-21 5,-34 -8,10 -14,15 -18,15 -4,0 -5,-1 -5,-3 0,-4 11,-18 34,-42 55,-58 106,-88 153,-88 35,0 53,15 55,45 1,19 -5,35 -17,49 -14,15 -27,22 -41,22 -13,0 -20,-5 -20,-16 0,-2 1,-4 1,-7 7,-17 24,-27 51,-30 8,-8 11,-17 11,-24 0,-8 -3,-15 -10,-20 -8,-5 -16,-7 -24,-7 -31,0 -62,22 -92,67 -27,41 -41,79 -41,112 0,27 11,40 35,40 26,0 61,-20 104,-62 16,-16 32,-33 49,-50 3,-1 5,1 5,4zm515 0c0,8 -19,30 -58,65 -39,37 -65,55 -78,55 -27,0 -41,-20 -41,-59 0,-21 16,-52 46,-93 31,-41 46,-64 46,-67 0,-7 -3,-10 -10,-10 -26,0 -96,73 -211,220l-59 6 110 -164c18,-27 27,-44 27,-52 0,-7 -4,-10 -12,-10 -15,0 -39,18 -74,55 -26,29 -73,84 -139,165l-60 6 115 -170c15,-23 23,-38 23,-45 0,-8 -4,-11 -11,-11 -15,0 -42,20 -82,60 -39,40 -59,60 -58,60 -2,0 -4,-1 -4,-3 0,-5 16,-24 47,-58 45,-49 78,-74 100,-74 22,0 33,14 33,40 0,25 -11,55 -34,92 70,-89 119,-133 147,-132 23,1 34,13 34,36 0,28 -12,60 -36,94 45,-50 75,-82 90,-97 23,-21 43,-32 60,-33 21,-1 32,13 32,42 0,19 -15,50 -46,94 -30,45 -46,71 -46,80 0,10 5,16 14,16 14,0 57,-38 130,-112 3,-1 5,1 5,4zm331 -1c0,5 -13,21 -39,48 -48,49 -83,73 -106,73 -23,0 -34,-14 -34,-42 0,-7 1,-18 4,-32 -40,49 -75,74 -107,74 -33,0 -49,-29 -49,-86 0,-13 2,-26 6,-39 -7,11 -13,16 -18,16 -3,0 -5,-1 -5,-3 0,-6 14,-21 40,-48 55,-55 106,-83 153,-83 29,0 44,13 44,39 0,6 -1,12 -3,19l34 -51 56 -3 -93 147c-21,33 -31,55 -31,66 0,8 4,12 13,12 13,0 36,-16 68,-48l62 -62c3,-1 5,0 5,3zm-125 -83c0,-17 -9,-26 -28,-26 -31,0 -63,24 -96,72 -31,45 -46,84 -46,118 0,17 7,26 20,26 20,0 46,-18 78,-54 48,-53 72,-98 72,-136zm500 -260c0,52 -75,122 -225,209l-109 191c-8,14 -12,26 -12,35 0,11 8,17 25,17 34,0 64,-16 89,-47 22,-28 36,-59 42,-96 1,-5 2,-17 4,-36 3,-35 13,-52 30,-52 16,0 24,12 24,35 0,37 -18,79 -53,127 1,0 4,0 7,1 3,1 6,1 7,1 22,0 51,-17 87,-52 2,0 3,2 3,5 0,2 -4,7 -10,15 -26,30 -54,44 -86,44 -5,0 -12,0 -20,-1 -43,46 -86,68 -130,68 -33,0 -49,-16 -49,-49 0,-28 16,-68 49,-121 -35,41 -53,61 -56,61 -2,0 -4,-1 -4,-3 0,-4 16,-23 46,-58 34,-39 52,-60 54,-64 2,-3 6,-11 12,-21 38,-69 81,-131 132,-187 38,-43 72,-64 100,-64 29,0 43,14 43,42zm-23 -2c0,-19 -8,-28 -24,-28 -40,0 -96,74 -169,222 129,-75 193,-140 193,-194zm253 -55l-308 512 -51 6 123 -195c-55,59 -84,89 -87,89 -4,0 -5,-1 -5,-3l120 -151c19,-24 34,-46 45,-65l109 -186 54 -7zm0 401c0,5 -13,21 -40,49 -47,48 -79,71 -98,71 -15,0 -27,-6 -37,-17 -10,-12 -15,-25 -15,-40 0,-6 1,-14 4,-25 3,-12 5,-20 5,-26 0,-5 -1,-12 -3,-19 -7,4 -15,6 -24,6 -12,0 -18,-4 -18,-13 0,-10 6,-16 18,-16 7,0 13,2 20,5 28,-5 48,-18 61,-39 26,-43 52,-65 76,-65 9,0 19,4 28,12 9,8 14,16 14,25 0,18 -9,27 -28,27 -5,0 -12,-6 -20,-19 -8,-13 -14,-20 -17,-20 -9,1 -16,7 -22,17 -12,19 -30,39 -53,59 -3,3 -11,7 -22,10 22,11 34,25 34,42 0,5 -1,13 -3,25 -2,11 -4,21 -5,29 -2,20 2,30 12,30 16,0 48,-27 96,-79 6,-7 17,-18 32,-33 4,-1 5,1 5,4zm339 -1c0,5 -13,21 -39,48 -48,49 -83,73 -105,73 -23,0 -35,-14 -35,-42 0,-7 1,-18 4,-32 -39,49 -75,74 -107,74 -32,0 -49,-29 -49,-86 0,-13 2,-26 6,-39 -7,11 -13,16 -18,16 -3,0 -4,-1 -4,-3 0,-6 13,-21 39,-48 55,-55 106,-83 153,-83 30,0 45,13 45,39 0,6 -2,12 -4,19l35 -51 56 -3 -93 147c-21,33 -32,55 -32,66 0,8 5,12 13,12 14,0 36,-16 68,-48l62 -62c4,-1 5,0 5,3zm-125 -83c0,-17 -9,-26 -27,-26 -32,0 -64,24 -97,72 -31,45 -46,84 -46,118 0,17 7,26 20,26 20,0 46,-18 79,-54 47,-53 71,-98 71,-136zm539 84c0,5 -14,22 -43,51 -46,46 -86,69 -120,69 -23,0 -41,-9 -54,-29 -11,-17 -17,-38 -17,-62 0,-9 2,-21 5,-34 -8,10 -14,15 -19,15 -3,0 -5,-1 -5,-3 0,-4 12,-18 34,-42 56,-58 107,-88 154,-88 35,0 53,15 55,45 1,19 -5,35 -18,49 -13,15 -27,22 -40,22 -13,0 -20,-5 -20,-16 0,-2 0,-4 1,-7 7,-17 24,-27 51,-30 7,-8 11,-17 11,-24 0,-8 -4,-15 -11,-20 -7,-5 -15,-7 -23,-7 -31,0 -62,22 -92,67 -28,41 -41,79 -41,112 0,27 11,40 34,40 27,0 62,-20 104,-62 17,-16 33,-33 49,-50 4,-1 5,1 5,4zm373 -344c0,52 -75,122 -226,209l-108 191c-8,14 -12,26 -12,35 0,11 8,17 25,17 34,0 64,-16 89,-47 21,-28 35,-59 41,-96 1,-5 3,-17 5,-36 3,-35 13,-52 29,-52 17,0 25,12 25,35 0,37 -18,79 -54,127 2,0 4,0 8,1 3,1 5,1 7,1 21,0 50,-17 86,-52 2,0 4,2 4,5 0,2 -4,7 -11,15 -25,30 -54,44 -86,44 -5,0 -11,0 -20,-1 -42,46 -86,68 -130,68 -32,0 -49,-16 -49,-49 0,-28 17,-68 50,-121 -35,41 -54,61 -56,61 -3,0 -4,-1 -4,-3 0,-4 15,-23 46,-58 33,-39 51,-60 54,-64 2,-3 6,-11 12,-21 37,-69 81,-131 131,-187 39,-43 72,-64 101,-64 29,0 43,14 43,42zm-23 -2c0,-19 -8,-28 -24,-28 -40,0 -97,74 -170,222 129,-75 194,-140 194,-194zm272 345c0,5 -13,21 -39,48 -48,49 -83,73 -106,73 -23,0 -34,-14 -34,-42 0,-7 1,-18 4,-32 -40,49 -75,74 -107,74 -33,0 -49,-29 -49,-86 0,-13 2,-26 5,-39 -6,11 -12,16 -17,16 -3,0 -5,-1 -5,-3 0,-6 13,-21 40,-48 55,-55 106,-83 153,-83 29,0 44,13 44,39 0,6 -1,12 -3,19l34 -51 56 -3 -93 147c-21,33 -31,55 -31,66 0,8 4,12 13,12 13,0 36,-16 68,-48l62 -62c3,-1 5,0 5,3zm-125 -83c0,-17 -9,-26 -28,-26 -31,0 -63,24 -96,72 -31,45 -46,84 -46,118 0,17 6,26 20,26 20,0 46,-18 78,-54 48,-53 72,-98 72,-136zm440 84c0,4 -3,9 -9,16 -17,18 -36,37 -57,55 -34,29 -63,51 -88,66 -86,164 -159,247 -219,247 -29,0 -43,-15 -43,-43 0,-51 75,-121 225,-209l44 -93c-47,54 -85,81 -114,81 -33,0 -49,-29 -49,-86 0,-13 2,-26 6,-39 -7,11 -13,16 -18,16 -3,0 -5,-1 -5,-3 0,-5 14,-21 40,-48 55,-55 106,-83 153,-83 29,0 44,13 44,39 0,6 -1,12 -3,19l35 -51 51 -3c-50,81 -95,160 -135,237 34,-22 80,-63 138,-122 2,-1 4,1 4,4zm-104 -84c0,-17 -9,-26 -28,-26 -31,0 -63,24 -96,72 -31,45 -46,84 -46,118 0,17 7,26 20,26 20,0 46,-18 78,-54 48,-53 72,-98 72,-136zm-96 234c-129,75 -194,139 -194,193 0,19 9,29 25,29 40,0 96,-74 169,-222zm438 -150c0,5 -14,22 -43,51 -46,46 -86,69 -119,69 -24,0 -42,-9 -55,-29 -12,-17 -17,-38 -17,-62 0,-11 1,-23 5,-36 -9,12 -15,17 -19,17 -3,0 -4,-1 -4,-3 0,-4 11,-18 33,-42 54,-58 106,-88 155,-88 31,0 46,13 46,39 0,29 -21,56 -65,80 -31,17 -66,30 -105,38 -3,18 -4,29 -4,34 0,26 11,40 34,40 20,0 42,-10 67,-29 16,-13 35,-31 57,-54 17,-20 27,-29 29,-29 3,0 5,1 5,4zm-46 -96c0,-11 -4,-17 -15,-17 -23,0 -48,17 -75,51 -21,27 -37,54 -48,83 31,-6 60,-20 88,-40 34,-24 50,-50 50,-77zm465 -330c0,13 -5,31 -14,54 -15,36 -38,60 -70,72 -9,3 -37,8 -86,15 -34,5 -58,16 -72,33 -32,39 -65,93 -100,164 34,-24 65,-36 92,-36 18,0 33,5 45,17 12,12 18,27 18,44 0,28 -16,62 -47,102 12,2 16,2 14,2 20,0 40,-8 60,-26 20,-17 29,-26 28,-26 2,0 3,2 3,5 0,2 -3,7 -10,15 -25,30 -54,44 -86,44 -6,0 -13,0 -19,-1 -15,16 -33,31 -54,44 -25,16 -45,24 -63,24 -37,0 -56,-29 -56,-88 0,-10 2,-23 6,-39 -8,12 -15,17 -18,17 -3,0 -4,-1 -4,-3 0,-6 17,-26 51,-60 5,-14 28,-55 70,-124 42,-68 68,-108 79,-119 25,-27 55,-42 92,-43 16,0 31,-1 43,-3 19,-2 32,-5 41,-9 19,-10 32,-33 39,-70 2,-11 6,-17 11,-17 5,0 7,4 7,12zm-217 343c0,-18 -9,-27 -26,-27 -31,0 -62,24 -93,71 -29,44 -44,82 -44,115 0,20 9,30 26,30 24,0 53,-25 87,-76 33,-49 50,-86 50,-113zm462 83c0,5 -13,20 -39,47 -48,49 -83,73 -104,73 -30,0 -46,-18 -46,-53 0,-13 7,-33 22,-59l-81 0c-19,31 -41,65 -64,103l-60 6 116 -172c14,-22 22,-36 22,-43 0,-7 -4,-10 -12,-10 -15,0 -42,20 -82,59 -39,40 -58,60 -57,60 -3,0 -4,-1 -4,-3 0,-5 6,-14 19,-28 62,-69 105,-103 127,-103 22,0 33,13 33,40 0,20 -10,47 -30,80l78 0c16,-24 38,-62 69,-112l60 -4 -83 132c-28,43 -42,69 -42,79 0,11 5,16 14,16 17,0 45,-18 83,-56 38,-37 56,-56 56,-56 3,0 5,1 5,4zm367 -1c0,8 -18,31 -56,66 -40,37 -66,55 -81,55 -26,0 -40,-19 -40,-57 0,-13 2,-21 4,-25l54 -93c-20,22 -44,37 -71,45 -4,35 -32,71 -84,109 -19,14 -35,21 -48,21 -31,0 -47,-18 -47,-53 0,-24 23,-69 69,-136 -50,53 -75,79 -77,79 -3,0 -4,-1 -4,-2 0,-7 35,-48 107,-123l61 -4 -89 140c-24,38 -36,61 -36,71 0,10 4,16 13,16 18,0 35,-8 52,-22 16,-15 26,-31 29,-48 1,-7 1,-18 1,-32 0,-6 0,-9 0,-11l0 1c0,-23 10,-35 30,-35 13,0 20,5 23,14 45,-13 82,-43 110,-90l57 -4 -103 163c-15,24 -23,40 -23,48 0,10 5,16 14,16 36,0 79,-38 130,-112 4,0 5,1 5,3zm306 -92c0,15 -8,22 -23,22 -7,0 -14,-5 -23,-16 -8,-11 -12,-16 -13,-16 -19,0 -46,28 -82,86 -25,40 -37,76 -37,108 0,11 5,17 14,17 15,0 59,-38 130,-112 4,0 6,1 6,4 0,8 -19,30 -57,65 -39,37 -66,55 -80,55 -16,0 -28,-7 -37,-21 -8,-12 -12,-26 -12,-41 0,-5 1,-11 2,-16 -46,52 -82,78 -110,78 -26,0 -39,-10 -39,-30 0,-18 8,-27 25,-27 9,0 16,6 23,19 7,13 10,20 10,20 12,0 28,-10 49,-30 55,-52 82,-106 82,-165 0,-11 -4,-16 -13,-16 -7,0 -18,6 -30,17 -9,9 -22,23 -40,42 -20,20 -39,41 -59,61 -3,0 -4,-1 -4,-3 0,-5 15,-24 46,-58l41 -44c21,-20 37,-30 50,-30 29,0 43,19 43,57 0,9 -1,18 -2,28 40,-56 75,-85 103,-85 25,0 37,11 37,31z"/>
  <path class="fil0" d="M2415 1248c0,13 -5,31 -14,54 -15,36 -38,60 -70,72 -9,3 -37,8 -86,15 -34,5 -58,16 -72,33 -32,39 -65,93 -100,164 34,-24 65,-36 92,-36 18,0 33,5 45,17 12,12 18,27 18,44 0,28 -15,62 -47,102 12,2 16,2 14,2 20,0 40,-8 60,-26 20,-17 29,-26 28,-26 2,0 3,2 3,5 0,2 -3,7 -10,15 -25,30 -54,44 -86,44 -6,0 -13,0 -19,-1 -15,16 -33,31 -54,44 -25,16 -45,24 -63,24 -37,0 -56,-29 -56,-88 0,-10 2,-23 6,-39 -8,12 -15,17 -18,17 -3,0 -4,-1 -4,-3 0,-6 17,-26 51,-60 5,-14 28,-55 70,-124 42,-68 68,-108 79,-119 25,-27 55,-42 92,-43 16,0 31,-1 43,-3 19,-2 32,-5 41,-9 19,-10 32,-33 39,-70 2,-11 6,-17 11,-17 5,0 7,4 7,12zm-217 343c0,-18 -9,-27 -26,-27 -31,0 -62,24 -93,71 -29,44 -44,82 -44,115 0,20 9,30 26,30 24,0 53,-25 87,-76 33,-49 50,-86 50,-113zm389 83c0,5 -4,11 -11,18 -47,50 -94,90 -143,119 -86,164 -159,247 -220,247 -29,0 -43,-15 -43,-43 0,-34 30,-74 89,-120 29,-23 75,-53 137,-89l67 -128c-34,38 -59,64 -74,76 -26,22 -49,33 -68,33 -12,0 -21,-5 -27,-16 -6,-10 -9,-21 -9,-33 0,-22 17,-57 49,-106l19 -27c-50,53 -75,79 -77,79 -3,0 -4,-1 -4,-2 0,-7 35,-48 107,-123l61 -4 -45 71c-2,2 -4,5 -6,9 -50,70 -75,112 -75,124 0,11 5,17 13,17 25,0 62,-30 111,-90 35,-42 65,-85 90,-127l52 -4c-50,82 -95,160 -135,237 34,-23 80,-63 138,-122 2,-1 4,1 4,4zm-199 150c-129,75 -194,139 -194,193 0,19 9,29 25,29 27,0 59,-31 98,-92 15,-24 39,-67 71,-130zm571 -551l-307 512 -51 6 122 -195c-55,59 -84,89 -87,89 -4,0 -5,-1 -5,-3l120 -151c19,-24 34,-46 46,-65l108 -186 54 -7zm0 401c0,5 -13,21 -40,49 -47,48 -79,71 -98,71 -15,0 -27,-6 -37,-17 -10,-12 -15,-25 -15,-40 0,-6 1,-14 4,-25 3,-12 5,-20 5,-26 0,-6 -1,-12 -3,-19 -7,4 -15,6 -24,6 -12,0 -18,-4 -18,-13 0,-10 6,-16 18,-16 7,0 14,2 20,5 28,-5 48,-18 61,-39 27,-43 52,-65 76,-65 10,0 19,4 28,12 9,7 14,16 14,25 0,18 -9,27 -27,27 -6,0 -13,-6 -21,-19 -8,-14 -14,-20 -17,-20 -8,1 -16,7 -22,17 -12,19 -30,39 -52,59 -4,3 -12,7 -23,10 23,11 34,25 34,42 0,5 -1,13 -3,25 -2,11 -4,21 -5,29 -2,20 2,30 12,30 16,0 48,-27 96,-79 6,-7 17,-18 32,-33 4,-1 5,1 5,4zm246 0c0,5 -14,22 -43,51 -45,46 -85,69 -119,69 -23,0 -41,-10 -55,-29 -11,-17 -17,-38 -17,-62 0,-11 2,-23 5,-36 -9,12 -15,17 -19,17 -2,0 -4,-1 -4,-3 0,-4 11,-18 33,-42 54,-58 106,-88 155,-88 31,0 47,13 47,39 0,29 -22,56 -66,80 -31,17 -66,30 -105,38 -2,18 -4,29 -4,34 0,26 11,40 34,40 20,0 42,-10 68,-29 15,-13 34,-31 56,-54 18,-20 27,-29 29,-29 4,0 5,1 5,4zm-45 -96c0,-11 -5,-17 -15,-17 -24,0 -49,17 -76,51 -21,27 -36,54 -47,83 30,-6 59,-20 88,-40 33,-24 50,-50 50,-77zm561 96c0,8 -19,30 -58,65 -40,37 -66,55 -78,55 -27,0 -41,-20 -41,-59 0,-21 15,-52 46,-93 30,-41 45,-64 45,-67 0,-7 -3,-10 -9,-10 -26,0 -97,73 -211,220l-59 6 110 -164c18,-27 26,-44 26,-52 0,-7 -4,-10 -12,-10 -14,0 -38,18 -73,55 -26,29 -73,84 -139,165l-60 6 114 -170c16,-23 24,-38 24,-45 0,-8 -4,-11 -12,-11 -14,0 -41,20 -81,60 -40,40 -59,60 -58,60 -3,0 -4,-1 -4,-3 0,-5 15,-24 46,-58 46,-49 79,-74 100,-74 22,0 33,14 33,40 0,25 -11,55 -34,92 71,-89 120,-133 148,-132 23,1 34,13 34,36 0,28 -12,60 -36,94 45,-50 74,-82 89,-97 24,-21 44,-32 61,-33 21,-1 31,13 31,42 0,19 -15,50 -45,94 -31,45 -46,71 -46,80 0,10 5,16 14,16 13,0 57,-38 130,-112 3,-1 5,1 5,4zm282 -6c0,8 -11,21 -34,37 -19,15 -37,22 -55,22 -6,0 -12,0 -19,-1 -15,16 -32,31 -53,44 -25,16 -46,24 -63,24 -38,0 -56,-29 -56,-88 0,-10 2,-23 6,-39 -9,12 -15,17 -18,17 -3,0 -5,-1 -5,-3 0,-4 12,-18 35,-44 54,-58 104,-87 149,-87 39,0 59,20 59,61 0,31 -14,65 -43,102 12,2 16,2 14,2 13,0 27,-6 42,-18 10,-10 21,-21 32,-33 2,-1 3,-1 6,-1 2,0 3,2 3,5zm-82 -76c0,-19 -9,-28 -28,-28 -29,0 -59,24 -90,72 -29,44 -43,82 -43,114 0,21 7,31 20,31 26,0 56,-25 91,-75 33,-48 50,-86 50,-114zm460 -262c0,52 -76,122 -226,209l-108 191c-8,14 -13,26 -13,35 0,11 9,17 26,17 34,0 63,-16 88,-47 22,-28 36,-59 42,-96 1,-5 2,-17 4,-36 4,-35 14,-52 30,-52 16,0 24,12 24,35 0,37 -17,79 -53,127 2,0 4,0 7,1 3,1 6,1 8,1 21,0 50,-17 86,-52 2,0 3,2 3,5 0,2 -3,7 -10,15 -25,30 -54,44 -86,44 -5,0 -12,0 -20,-1 -42,46 -86,68 -130,68 -33,0 -49,-16 -49,-49 0,-28 16,-68 49,-121 -34,41 -53,61 -55,61 -3,0 -4,-1 -4,-3 0,-4 15,-23 46,-58 33,-39 51,-60 53,-64 3,-3 7,-11 12,-21 38,-69 82,-131 132,-187 39,-43 72,-64 101,-64 28,0 43,14 43,42zm-23 -2c0,-19 -8,-28 -25,-28 -40,0 -96,74 -169,222 129,-75 194,-140 194,-194z"/>
 </g>
</svg>
