<?xml version="1.0" encoding="UTF-8"?>
<!DOCTYPE svg PUBLIC "-//W3C//DTD SVG 1.1//EN" "http://www.w3.org/Graphics/SVG/1.1/DTD/svg11.dtd">
<!-- Creator: CorelDRAW X7 -->
<svg xmlns="http://www.w3.org/2000/svg" xml:space="preserve" width="140mm" height="40mm" version="1.1" style="shape-rendering:geometricPrecision; text-rendering:geometricPrecision; image-rendering:optimizeQuality; fill-rule:evenodd; clip-rule:evenodd"
viewBox="0 0 14000 4000"
 xmlns:xlink="http://www.w3.org/1999/xlink"
 enable-background="new 0 0 1400 980">
 <defs>
  <style type="text/css">
   <![CDATA[
    .str0 {stroke:white;stroke-width:15.24}
    .str1 {stroke:white;stroke-width:7.62}
    .fil0 {fill:none;fill-rule:nonzero}
    .fil1 {fill:#CF3A3A}
    .fil2 {fill:#CF3A3A;fill-rule:nonzero}
   ]]>
  </style>
 </defs>
 <g id="Слой_x0020_1">
  <metadata id="CorelCorpID_0Corel-Layer"/>
  <path class="fil0" d="M991 1776c145,414 679,1036 1064,1255 819,465 2047,367 3015,427 1504,93 2459,-66 3945,339 129,35 220,59 351,82"/>
  <path class="fil1" d="M2304 954c0,172 -73,385 -217,637 93,102 142,156 147,163 0,12 -5,18 -16,18 -28,0 -81,-47 -160,-141 -118,157 -243,290 -375,401 23,57 35,114 35,173 0,133 -42,248 -125,344 -87,99 -197,149 -329,149 -26,0 -39,-7 -39,-21 0,-6 23,-15 68,-26 33,-9 64,-18 95,-28 163,-71 245,-206 245,-404 0,-41 -5,-87 -15,-137 -267,185 -506,278 -718,278 -173,0 -314,-49 -423,-147 -114,-102 -171,-238 -171,-410 0,-171 58,-312 174,-423 116,-110 260,-165 432,-165 111,0 205,29 282,88 84,64 126,151 126,260 0,74 -24,147 -72,219 198,0 337,70 415,212 122,-106 227,-258 315,-457 -154,-195 -232,-407 -232,-632 0,-101 17,-188 52,-260 45,-95 112,-142 200,-142 100,0 178,52 235,158 47,87 71,184 71,293zm-163 -140c0,-185 -52,-278 -157,-278 -104,0 -155,107 -155,320 0,219 57,428 172,627 94,-230 140,-453 140,-669zm-542 1229c-60,-148 -189,-222 -384,-222 -91,96 -164,145 -217,145 -43,0 -65,-17 -65,-49 0,-63 89,-107 269,-133 15,-42 23,-83 23,-123 0,-110 -40,-203 -119,-279 -79,-75 -174,-113 -284,-113 -120,0 -218,42 -292,128 -72,81 -107,182 -107,304 0,170 57,308 172,415 113,105 255,157 426,157 195,0 389,-77 578,-230zm1489 -379c0,20 -25,50 -76,90 -75,60 -122,100 -141,120 -51,54 -77,107 -77,159 0,46 22,69 64,69 56,0 121,-41 196,-124 10,1 15,5 15,13 0,30 -27,62 -80,97 -51,32 -92,48 -125,48 -72,0 -108,-34 -108,-101 0,-24 11,-66 33,-124 -101,84 -228,223 -382,419l-180 17 346 -514c48,-71 72,-117 72,-138 0,-23 -12,-34 -36,-34 -44,0 -126,61 -247,183 -121,122 -180,184 -177,184 -8,0 -13,-4 -13,-11 0,-14 47,-72 141,-174 139,-150 240,-226 306,-226 67,0 100,37 100,111 0,75 -41,181 -123,320 70,-71 144,-139 221,-205 28,-73 52,-123 72,-150 37,-50 84,-76 140,-76 40,0 59,16 59,47zm676 -481c0,28 -10,54 -31,79 -20,25 -44,38 -71,38 -49,0 -73,-25 -73,-75 0,-30 10,-56 31,-80 21,-24 46,-36 75,-36 46,0 69,24 69,74zm-129 811c0,14 -40,61 -118,142 -146,150 -251,224 -315,224 -93,0 -139,-54 -139,-162 0,-50 27,-121 82,-214 0,0 42,-68 126,-202 -147,162 -226,243 -237,243 -7,0 -10,-3 -10,-8 0,-24 109,-149 327,-374l185 -13 -255 403c-83,131 -126,212 -126,242 0,33 15,49 44,49 53,0 138,-57 253,-171 115,-115 171,-172 168,-172 10,0 15,4 15,13zm565 0c0,12 -33,54 -101,124 -154,162 -285,242 -391,242 -117,0 -175,-44 -175,-133 0,-22 7,-41 23,-58 15,-17 34,-25 56,-25 36,0 54,16 54,48 0,9 -5,25 -15,48 -10,22 -15,38 -15,49 0,18 13,28 39,28 80,0 146,-72 199,-216 41,-113 61,-221 61,-322 0,-11 -2,-43 -5,-97l-174 190c-94,104 -145,156 -152,156 -8,0 -12,-4 -12,-11 0,-16 112,-144 335,-384 30,-73 65,-109 106,-109 34,0 51,17 51,49 0,21 -19,43 -59,65 -39,23 -59,54 -59,93 0,35 8,86 24,153 16,68 24,119 24,153 0,53 -11,104 -33,153 130,-139 198,-209 204,-209 10,0 15,4 15,13zm563 0c0,12 -34,54 -101,124 -155,162 -286,242 -392,242 -117,0 -175,-44 -175,-133 0,-22 7,-41 23,-58 15,-17 34,-25 56,-25 36,0 54,16 54,48 0,9 -5,25 -15,48 -10,22 -15,38 -15,49 0,18 13,28 39,28 80,0 146,-72 199,-216 41,-113 61,-221 61,-322 0,-11 -1,-43 -5,-97l-174 190c-94,104 -145,156 -151,156 -9,0 -13,-4 -13,-11 0,-16 112,-144 335,-384 30,-73 65,-109 106,-109 34,0 51,17 51,49 0,21 -19,43 -58,65 -40,23 -60,54 -60,93 0,35 8,86 24,153 16,68 24,119 24,153 0,53 -11,104 -33,153 131,-139 198,-209 205,-209 9,0 15,4 15,13zm3388 -1380c0,77 -101,116 -302,116l-15 0c-19,2 -47,13 -84,30 -145,71 -286,235 -423,494 57,11 108,25 152,40 104,-29 207,-80 312,-152 24,-17 38,-25 43,-25 8,0 12,4 12,15 0,43 -103,106 -310,189 145,78 217,193 217,345 0,125 -51,233 -153,323 -98,86 -211,129 -340,129 -114,0 -253,-52 -418,-155 -259,275 -530,413 -810,413 -182,0 -330,-62 -442,-185 -110,-119 -164,-271 -164,-455 0,-85 13,-164 39,-237 35,-100 88,-150 157,-150 62,0 92,32 92,96 0,29 -9,56 -26,80 -19,27 -42,41 -71,41 -7,0 -19,-1 -34,-3 -15,-2 -27,-3 -34,-3 -53,0 -79,46 -79,137 0,164 76,300 229,411 140,101 294,152 463,152 239,0 454,-109 645,-325 -317,-278 -476,-594 -476,-949 0,-159 40,-284 118,-375 82,-96 201,-145 358,-145 100,0 262,35 485,104 222,68 392,103 510,103 110,-81 200,-121 271,-121 52,0 78,21 78,62zm-439 131c-84,5 -143,7 -178,7 -93,0 -232,-18 -414,-55 -183,-37 -321,-55 -414,-55 -226,0 -338,115 -338,344 0,159 52,319 158,481 93,140 212,263 357,369 109,-144 195,-279 255,-407 -128,-4 -193,-35 -193,-91 0,-69 71,-103 215,-103 9,0 22,1 40,4 18,2 31,4 40,4 157,-269 314,-435 472,-498zm0 916c0,-72 -23,-139 -69,-200 -50,-68 -110,-101 -179,-101 -29,0 -68,9 -119,28 -54,20 -93,31 -118,34 -97,176 -197,324 -300,443 144,84 276,126 397,126 110,0 200,-27 271,-80 78,-59 117,-142 117,-250zm1048 -890l-795 1262c-83,133 -124,214 -124,242 0,33 15,49 46,49 45,0 121,-49 230,-148 18,-17 83,-82 196,-195 10,-1 15,3 15,13 0,14 -39,61 -118,142 -146,150 -251,224 -315,224 -93,0 -139,-54 -139,-162 0,-54 68,-193 205,-416 -150,163 -227,246 -232,246 -8,0 -12,-4 -12,-11 0,-15 54,-82 163,-200 119,-131 186,-209 203,-233l508 -790 169 -23zm441 1205c0,6 -11,22 -31,47 -77,89 -165,134 -264,134 -18,0 -38,-2 -58,-5 -127,139 -241,208 -341,208 -115,0 -173,-89 -173,-268 0,-31 7,-70 20,-119 -26,35 -45,52 -56,52 -9,0 -13,-4 -13,-10 0,-11 35,-55 106,-132 164,-179 316,-268 454,-268 119,0 178,62 178,186 0,85 -47,190 -142,312 35,5 49,7 41,7 62,0 123,-26 183,-80 61,-53 89,-79 86,-79 7,0 10,5 10,15zm-248 -188c0,-86 -32,-129 -98,-129 -88,0 -180,72 -275,218 -88,135 -132,252 -132,348 0,61 26,92 79,92 66,0 148,-52 244,-154 121,-129 182,-255 182,-375zm1573 197c-3,5 -13,18 -30,38 -73,89 -160,134 -263,134 -15,0 -35,-2 -60,-5 -148,137 -276,206 -386,206 -91,0 -137,-59 -137,-176 0,-21 2,-44 7,-71 -143,164 -256,247 -337,247 -95,0 -142,-54 -142,-162 0,-79 69,-214 206,-405 -149,157 -225,237 -230,237 -8,0 -12,-4 -12,-11 0,-31 110,-155 331,-374l177 -10 -270 424c-73,114 -109,186 -109,216 0,31 14,46 41,46 149,0 357,-225 626,-676l174 -10 -290 451c-55,86 -82,142 -82,170 0,43 22,65 64,65 94,0 186,-46 277,-139 82,-84 138,-174 167,-272 10,-33 19,-82 26,-148 11,-95 40,-143 85,-143 47,0 70,29 70,86 0,95 -74,232 -222,410 4,0 12,1 23,4 10,2 18,3 23,3 74,0 155,-50 243,-152 4,-5 11,-7 20,-7 7,0 10,8 10,24zm711 9c0,15 -44,66 -131,154 -140,142 -261,212 -364,212 -71,0 -126,-29 -166,-89 -36,-52 -53,-115 -53,-189 0,-34 5,-70 15,-109 -27,35 -46,52 -57,52 -8,0 -13,-4 -13,-10 0,-12 34,-54 101,-127 165,-179 322,-268 472,-268 95,0 142,40 142,119 0,89 -66,169 -199,242 -95,52 -202,91 -320,118 -9,52 -13,86 -13,103 0,80 35,120 103,120 61,0 129,-30 206,-88 49,-38 106,-93 172,-165 54,-59 84,-88 90,-88 10,0 15,4 15,13zm-139 -292c0,-34 -15,-51 -46,-51 -72,0 -148,51 -229,153 -64,82 -112,167 -146,255 93,-20 182,-61 268,-124 102,-73 153,-151 153,-233zm1011 -38c0,20 -25,50 -76,90 -75,60 -122,100 -142,120 -51,54 -76,107 -76,159 0,46 21,69 64,69 55,0 121,-41 196,-124 10,1 15,5 15,13 0,30 -27,62 -81,97 -50,32 -92,48 -124,48 -73,0 -109,-34 -109,-101 0,-24 11,-66 33,-124 -100,84 -227,223 -382,419l-180 17 346 -514c48,-71 72,-117 72,-138 0,-23 -11,-34 -35,-34 -44,0 -126,61 -248,183 -121,122 -179,184 -176,184 -9,0 -13,-4 -13,-11 0,-14 47,-72 141,-174 138,-150 240,-226 305,-226 68,0 101,37 101,111 0,75 -41,181 -124,320 71,-71 145,-139 222,-205 28,-73 52,-123 72,-150 37,-50 83,-76 140,-76 39,0 59,16 59,47zm544 330c0,12 -33,54 -101,124 -154,162 -285,242 -392,242 -116,0 -175,-44 -175,-133 0,-22 8,-41 23,-58 16,-17 35,-25 57,-25 36,0 54,16 54,48 0,9 -5,25 -16,48 -9,22 -15,38 -15,49 0,18 13,28 40,28 79,0 145,-72 198,-216 41,-113 62,-221 62,-322 0,-11 -2,-43 -5,-97l-175 190c-94,104 -144,156 -151,156 -8,0 -12,-4 -12,-11 0,-16 111,-144 335,-384 30,-73 65,-109 105,-109 35,0 52,17 52,49 0,21 -20,43 -59,65 -40,23 -59,54 -59,93 0,35 8,86 24,153 16,68 23,119 23,153 0,53 -10,104 -32,153 130,-139 198,-209 204,-209 10,0 15,4 15,13z"/>
  <g id="_353360344">
   <path class="fil2 str0" d="M5803 2733c936,-187 1668,-166 2608,-154 540,15 1038,90 1570,167 495,66 962,132 1462,74 602,-109 1359,-519 1805,-955 -80,97 -212,217 -273,308 -129,203 -405,438 -596,581 -245,160 -478,139 -766,211 -27,7 -52,10 -80,13 -481,50 -1072,-88 -1548,-174 -549,-101 -1005,-165 -1567,-101 -70,9 -139,19 -209,31 -693,110 -652,165 -1197,45 -190,-18 -979,181 -1037,372 -4,11 -57,181 -73,82 -53,-40 -88,-94 -67,-161 34,-85 -85,158 -94,176 -90,25 -164,18 -108,-96 184,-218 843,-390 1126,-403 89,0 -619,-28 -1079,214 -51,30 -407,250 -191,31 -18,-5 -114,15 -132,19 -100,18 -241,-18 -198,83 11,19 32,53 57,67 -52,0 -103,1 -154,1 5,-41 3,-103 -52,-99 -172,45 -432,188 -576,290 -63,52 -144,128 -123,219 29,112 4,145 -86,70 -17,20 -44,40 -55,3 7,-82 184,-332 237,-392 151,-142 293,-240 495,-296 450,-118 356,-223 901,-226zm-587 430c13,8 28,10 44,0 -15,0 -30,0 -44,0z"/>
   <path class="fil2 str0" d="M5350 2804c-338,73 -664,187 -973,342 -84,49 -202,125 -229,226 -45,216 -34,76 75,1 50,-34 23,-88 165,-189 291,-174 637,-287 962,-380z"/>
   <path class="fil2 str0" d="M5235 2978c-184,76 -648,286 -713,472 -9,145 -14,47 60,-13 309,-274 148,-208 653,-459z"/>
   <path class="fil2" d="M5186 2883c-204,62 -664,226 -770,406 0,0 -1,7 -1,8 -12,100 -24,94 13,35 15,-19 29,-32 50,-44 339,-248 173,-199 708,-405z"/>
   <path class="fil2" d="M6722 2761c-176,30 -605,112 -695,269 -39,139 -26,44 51,3 318,-178 134,-146 644,-272z"/>
  </g>
  <g id="_399182696">
   <path class="fil1" d="M13232 1918c0,0 -52,-37 -83,-13 -32,24 -117,108 -192,162 -75,55 -235,114 -170,211 66,98 0,137 54,164 42,20 103,-44 145,-11 41,34 105,-112 147,-235 42,-124 178,-209 99,-278z"/>
   <path class="fil1" d="M13301 1977c0,0 245,-58 325,166 80,224 76,350 139,394 62,43 -74,22 -108,-7 -34,-30 -97,8 -127,-42 -29,-50 -58,-283 -77,-352 -37,-129 -189,-153 -152,-159z"/>
   <path class="fil1 str1" d="M13290 1946c0,0 1,-36 -58,-68 0,0 137,-164 142,-233 5,-68 58,-110 129,-130 71,-19 79,-52 93,-52 42,-1 48,134 5,214 -42,80 -165,139 -311,269z"/>
   <path class="fil1" d="M13191 1850c0,0 -26,-139 -91,-176 -65,-38 -256,-25 -322,-54 -66,-30 -91,-97 -105,-64 -12,29 45,71 51,147 8,77 54,142 145,125 90,-17 227,-98 270,-12 43,86 52,34 52,34z"/>
   <path class="fil1" d="M13470 1402c0,0 -22,39 -70,45 -47,5 -82,15 -102,40 0,0 62,-104 127,-123 65,-19 45,38 45,38z"/>
   <path class="fil1" d="M13410 1471c0,0 -76,1 -112,41 -32,36 -97,158 -73,344 0,0 38,-149 71,-193 69,-93 114,-192 114,-192z"/>
   <path class="fil1" d="M13734 1576c0,0 51,33 29,97 -21,64 -115,249 -427,279 0,0 236,-92 285,-185 49,-93 46,-146 63,-168 16,-22 39,-32 50,-23z"/>
  </g>
 </g>
</svg>
